<?xml version="1.0" standalone="no"?>
<!DOCTYPE svg PUBLIC "-//W3C//DTD SVG 20010904//EN"
 "http://www.w3.org/TR/2001/REC-SVG-20010904/DTD/svg10.dtd">
<svg version="1.0" xmlns="http://www.w3.org/2000/svg"
width="57.750000pt" height="19.650000pt" viewBox="0 0 385.000000 131.000000"
 preserveAspectRatio="xMidYMid meet">

<g transform="translate(0.000000,131.000000) scale(0.100000,-0.100000)"
fill="#ffffff" stroke="none">
<path d="M218 956 c-99 -27 -171 -101 -203 -210 -47 -159 31 -333 172 -386
105 -39 217 -19 291 53 l32 31 0 -47 0 -47 100 0 100 0 0 45 0 45 -50 0 -50 0
2 213 3 212 48 3 47 3 0 40 0 39 -100 0 -100 0 0 -46 0 -47 -20 26 c-27 34
-113 74 -175 81 -28 3 -71 0 -97 -8z m167 -95 c112 -52 158 -195 101 -317 -72
-156 -269 -161 -349 -10 -30 58 -31 174 0 231 55 103 152 141 248 96z"/>
<path d="M1635 960 c-70 -11 -124 -46 -146 -93 -25 -56 -24 -103 4 -157 30
-61 84 -87 234 -111 132 -22 166 -39 171 -86 11 -110 -250 -117 -320 -9 -20
32 -28 36 -65 36 l-43 0 0 -95 0 -95 45 0 c41 0 45 2 45 25 l0 24 52 -27 c47
-24 63 -27 153 -27 78 0 108 4 138 19 124 62 130 239 10 297 -24 12 -92 30
-151 40 -128 22 -169 35 -182 59 -29 54 9 104 87 115 75 10 125 -7 171 -60 35
-40 44 -45 81 -45 l41 0 0 90 0 90 -45 0 c-40 0 -45 -2 -45 -23 l0 -24 -57 28
c-65 31 -118 39 -178 29z"/>
<path d="M3105 941 c-22 -10 -57 -37 -77 -59 l-38 -42 0 55 0 55 -100 0 -100
0 0 -39 0 -40 48 -3 47 -3 3 -212 2 -213 -50 0 -50 0 0 -45 0 -45 160 0 160 0
0 45 0 45 -55 0 -55 0 0 133 c0 72 5 150 11 171 19 69 64 98 187 121 30 6 32
9 32 51 l0 44 -42 0 c-24 0 -61 -9 -83 -19z"/>
<path d="M1043 500 c-37 -15 -54 -69 -37 -115 9 -23 62 -48 90 -41 75 19 86
117 17 154 -25 14 -40 14 -70 2z"/>
<path d="M2333 500 c-37 -15 -54 -69 -37 -115 9 -23 62 -48 90 -41 75 19 86
117 17 154 -25 14 -40 14 -70 2z"/>
<path d="M3452 487 c-37 -40 -28 -98 20 -123 50 -26 118 13 118 68 0 67 -92
104 -138 55z"/>
</g>
</svg>
