<?xml version="1.0" standalone="no"?>
<!DOCTYPE svg PUBLIC "-//W3C//DTD SVG 20010904//EN"
 "http://www.w3.org/TR/2001/REC-SVG-20010904/DTD/svg10.dtd">
<svg version="1.0" xmlns="http://www.w3.org/2000/svg"
 width="600.000000pt" height="320.000000pt" viewBox="0 0 600.000000 320.000000"
 preserveAspectRatio="xMidYMid meet">

<g transform="translate(0.000000,320.000000) scale(0.100000,-0.100000)"
fill="#ffffff" stroke="none">
<path d="M1470 1600 c0 -172 1 -180 20 -180 18 0 20 8 22 142 l3 142 60 -92
c33 -50 62 -92 65 -91 3 0 32 40 65 89 l60 89 3 -140 c2 -131 4 -139 22 -139
19 0 20 8 20 180 0 169 -1 180 -19 180 -12 0 -39 -31 -81 -95 -34 -52 -65 -95
-69 -95 -3 0 -34 43 -69 95 -44 67 -68 95 -82 95 -19 0 -20 -7 -20 -180z"/>
<path d="M2151 1738 c-10 -24 -42 -95 -71 -158 -75 -165 -73 -160 -50 -160 13
0 25 14 39 45 l20 45 98 0 99 0 22 -45 c15 -31 28 -45 42 -45 23 0 28 -14 -68
200 -55 123 -74 156 -91 158 -17 3 -25 -6 -40 -40z m80 -100 l36 -83 -75 -3
c-41 -2 -76 -1 -78 1 -5 5 68 167 76 167 3 0 22 -37 41 -82z"/>
<path d="M2490 1773 c0 -5 33 -86 72 -180 91 -217 95 -218 158 -70 24 56 58
137 76 180 l33 77 -22 0 c-20 0 -30 -18 -82 -145 -32 -80 -62 -148 -66 -150
-4 -3 -21 28 -37 67 -16 40 -44 108 -62 151 -24 58 -37 77 -51 77 -10 0 -19
-3 -19 -7z"/>
<path d="M3020 1600 l0 -180 130 0 c123 0 130 1 130 20 0 19 -7 20 -110 20
l-110 0 0 60 0 60 100 0 c93 0 100 1 100 20 0 19 -7 20 -100 20 l-100 0 0 60
0 60 110 0 c103 0 110 1 110 20 0 19 -7 20 -130 20 l-130 0 0 -180z"/>
<path d="M3490 1600 c0 -172 1 -180 20 -180 18 0 20 8 22 142 l3 142 110 -142
c66 -85 117 -142 128 -142 16 0 17 15 17 180 0 172 -1 180 -20 180 -18 0 -20
-8 -22 -140 l-3 -140 -110 140 c-67 86 -116 140 -127 140 -17 0 -18 -15 -18
-180z"/>
<path d="M4083 1767 c-33 -12 -38 -18 -31 -39 3 -8 12 -8 36 0 l32 11 0 -160
c0 -152 1 -159 20 -159 19 0 20 7 20 180 l0 180 -22 -1 c-13 0 -38 -6 -55 -12z"/>
<path d="M4441 1766 c-19 -7 -37 -18 -39 -24 -6 -18 21 -24 51 -13 l27 11 0
-160 c0 -153 1 -160 20 -160 19 0 20 7 20 180 l0 180 -22 -1 c-13 0 -38 -6
-57 -13z"/>
</g>
</svg>
